<?xml version="1.0" standalone="no"?>
<svg width="64" height="64" viewBox="0 0 480 384" version="1.1" xmlns="http://www.w3.org/2000/svg">
  <path d="M240 400v0v0c-71 0 -128 -54 -118 -128c2 -15 3 -32 4 -45c0 0 -2 -5 -12 -5c-6 0 -15 2 -28 7c-2 1 -4 1 -6 1c-8 0 -13 -6 -14 -12c0 -5 4 -11 8 -13c14 -7 47 -10 47 -33s-23 -47 -41 -64s-64 -21 -64 -21s0 -21 32 -29s32 -5 33 -13c2 -15 1 -22 11 -22c2 0 4 1 6 1 c8 1 20 3 32 3c11 0 23 -2 34 -9c23 -15 41 -34 76 -34s53 19 76 34c11 7 24 9 35 9c12 0 23 -2 31 -3c2 0 4 -1 6 -1c10 0 9 7 11 22c1 8 1 5 33 13s32 29 32 29s-46 4 -64 21s-41 41 -41 64s33 26 47 33c4 2 9 8 9 13c-1 6 -6 12 -14 12c-2 0 -5 0 -7 -1 c-13 -5 -21 -6 -27 -6c-10 0 -13 4 -13 4c1 13 2 30 4 45c10 74 -47 128 -118 128zM240 416v0c41 0 80 -16 105 -45c24 -28 34 -63 29 -101c-1 -11 -2 -22 -3 -31c4 1 10 2 18 5c4 1 8 2 12 2c16 0 29 -12 30 -27c1 -13 -9 -25 -18 -29c-4 -2 -9 -3 -14 -5 c-7 -2 -14 -5 -19 -8c-4 -3 -5 -4 -5 -5c0 -16 20 -37 36 -52c11 -10 39 -16 54 -17l15 -1v-14c0 -2 0 -11 -6 -21c-5 -8 -16 -19 -38 -24c-6 -1 -11 -3 -15 -4c-2 -1 -5 -1 -7 -1v-1c-1 -7 -1 -13 -4 -18c-2 -5 -9 -12 -22 -12c-2 0 -6 0 -9 1c-2 0 -3 1 -5 1 c-7 1 -15 2 -23 2c-10 0 -19 -2 -26 -6c-4 -3 -9 -7 -14 -10c-18 -13 -38 -27 -71 -27s-53 14 -71 27c-5 3 -9 7 -14 10c-7 4 -15 6 -25 6c-8 0 -17 -1 -24 -2c-2 0 -3 -1 -5 -1c-3 -1 -7 -1 -9 -1c-13 0 -20 7 -22 12c-3 5 -3 11 -4 18v1c-2 0 -4 0 -6 1c-4 1 -10 3 -16 4 c-22 5 -33 16 -38 24c-6 10 -6 18 -6 20v15l15 1c16 1 44 7 54 17c29 27 36 43 36 52c0 1 0 2 -4 5c-5 3 -13 6 -20 8c-5 2 -10 3 -14 5c-9 4 -18 16 -17 29c1 15 14 27 30 27c4 0 8 0 12 -2c8 -3 13 -4 17 -5c-1 9 -2 19 -3 30c-5 38 5 74 29 102c25 29 64 45 105 45v0z M240 219c-21 0 -41 8 -56 23c-3 3 -3 9 0 12s9 3 12 0c12 -12 27 -19 44 -19c16 0 32 7 44 19c3 3 9 3 12 0s3 -9 0 -12c-15 -15 -35 -23 -56 -23zM176 296c0 16 5 24 16 24s16 -8 16 -24s-5 -24 -16 -24s-16 8 -16 24zM272 296c0 16 5 24 16 24s16 -8 16 -24 s-5 -24 -16 -24s-16 8 -16 24z" transform="matrix(1,0,0,-1,0,384)"/>
</svg>